<svg width="28" height="28" viewBox="0 0 28 28" fill="none" xmlns="http://www.w3.org/2000/svg">
<path d="M14.0003 12.6665C15.7684 12.6665 17.4641 13.3689 18.7144 14.6191C19.9646 15.8694 20.667 17.5651 20.667 19.3332V27.3332H7.33366V19.3332C7.33366 17.5651 8.03604 15.8694 9.28628 14.6191C10.5365 13.3689 12.2322 12.6665 14.0003 12.6665ZM5.05099 16.6745C4.8388 17.3902 4.71346 18.1289 4.67766 18.8745L4.66699 19.3332V27.3332H0.666992V21.3332C0.66673 20.1833 1.09103 19.0738 1.85851 18.2174C2.62598 17.3611 3.68259 16.8183 4.82566 16.6932L5.05099 16.6745ZM22.9497 16.6745C24.1362 16.7468 25.2505 17.2691 26.0651 18.1348C26.8798 19.0005 27.3335 20.1444 27.3337 21.3332V27.3332H23.3337V19.3332C23.3337 18.4092 23.2003 17.5172 22.9497 16.6745ZM5.33366 8.6665C6.21771 8.6665 7.06556 9.01769 7.69068 9.64281C8.3158 10.2679 8.66699 11.1158 8.66699 11.9998C8.66699 12.8839 8.3158 13.7317 7.69068 14.3569C7.06556 14.982 6.21771 15.3332 5.33366 15.3332C4.4496 15.3332 3.60176 14.982 2.97664 14.3569C2.35152 13.7317 2.00033 12.8839 2.00033 11.9998C2.00033 11.1158 2.35152 10.2679 2.97664 9.64281C3.60176 9.01769 4.4496 8.6665 5.33366 8.6665ZM22.667 8.6665C23.551 8.6665 24.3989 9.01769 25.024 9.64281C25.6491 10.2679 26.0003 11.1158 26.0003 11.9998C26.0003 12.8839 25.6491 13.7317 25.024 14.3569C24.3989 14.982 23.551 15.3332 22.667 15.3332C21.7829 15.3332 20.9351 14.982 20.31 14.3569C19.6848 13.7317 19.3337 12.8839 19.3337 11.9998C19.3337 11.1158 19.6848 10.2679 20.31 9.64281C20.9351 9.01769 21.7829 8.6665 22.667 8.6665ZM14.0003 0.666504C15.4148 0.666504 16.7714 1.22841 17.7716 2.2286C18.7718 3.2288 19.3337 4.58535 19.3337 5.99984C19.3337 7.41432 18.7718 8.77088 17.7716 9.77107C16.7714 10.7713 15.4148 11.3332 14.0003 11.3332C12.5858 11.3332 11.2293 10.7713 10.2291 9.77107C9.22889 8.77088 8.66699 7.41432 8.66699 5.99984C8.66699 4.58535 9.22889 3.2288 10.2291 2.2286C11.2293 1.22841 12.5858 0.666504 14.0003 0.666504Z" fill="white"/>
</svg>
